<?xml version="1.0" encoding="UTF-8" standalone="no"?>
<!DOCTYPE svg PUBLIC "-//W3C//DTD SVG 1.1//EN"
 "http://www.w3.org/Graphics/SVG/1.1/DTD/svg11.dtd">
<!-- Generated by graphviz version 2.46.1 (0)
 -->
<!-- Title: &lt;Hello&gt;.main Pages: 1 -->
<svg width="347pt" height="730pt"
 viewBox="0.00 0.00 347.05 730.00" xmlns="http://www.w3.org/2000/svg" xmlns:xlink="http://www.w3.org/1999/xlink">
<g id="page0,1_graph0" class="graph" transform="scale(1 1) rotate(0) translate(4 726)">
<title>&lt;Hello&gt;.main</title>
<polygon fill="white" stroke="transparent" points="-4,4 -4,-726 343.05,-726 343.05,4 -4,4"/>
<text text-anchor="middle" x="169.52" y="-7.8" font-family="Times,serif" font-size="14.00">&lt;Hello&gt;.main</text>
<g id="clust1" class="cluster">
<title>cluster_:B:64:146</title>
<polygon fill="none" stroke="black" points="8,-31 8,-586 244,-586 244,-31 8,-31"/>
<text text-anchor="middle" x="126" y="-570.8" font-family="Times,serif" font-size="14.00">:B:64:146</text>
</g>
<!-- NM2_main_N1 -->
<g id="node1" class="node">
<title>NM2_main_N1</title>
<ellipse fill="none" stroke="black" cx="168" cy="-704" rx="52.79" ry="18"/>
<text text-anchor="middle" x="168" y="-700.3" font-family="Times,serif" font-size="14.00">input (arg0)</text>
</g>
<!-- NM2_main_N2 -->
<g id="node2" class="node">
<title>NM2_main_N2</title>
<ellipse fill="none" stroke="black" cx="168" cy="-631" rx="71.49" ry="18"/>
<text text-anchor="middle" x="168" y="-627.3" font-family="Times,serif" font-size="14.00">assign_var (args)</text>
</g>
<!-- NM2_main_N1&#45;&gt;NM2_main_N2 -->
<g id="edge1" class="edge">
<title>NM2_main_N1&#45;&gt;NM2_main_N2</title>
<path fill="none" stroke="black" d="M168,-685.81C168,-677.79 168,-668.05 168,-659.07"/>
<polygon fill="black" stroke="black" points="171.5,-659.03 168,-649.03 164.5,-659.03 171.5,-659.03"/>
</g>
<!-- NM2_main_N4 -->
<g id="node6" class="node">
<title>NM2_main_N4</title>
<ellipse fill="none" stroke="black" cx="168" cy="-537" rx="59.29" ry="18"/>
<text text-anchor="middle" x="168" y="-533.3" font-family="Times,serif" font-size="14.00">ref_var (args)</text>
</g>
<!-- NM2_main_N2&#45;&gt;NM2_main_N4 -->
<g id="edge2" class="edge">
<title>NM2_main_N2&#45;&gt;NM2_main_N4</title>
<path fill="none" stroke="black" d="M168,-612.7C168,-599.46 168,-580.95 168,-565.66"/>
<polygon fill="black" stroke="black" points="171.5,-565.23 168,-555.23 164.5,-565.23 171.5,-565.23"/>
</g>
<!-- NM2_main_N3 -->
<g id="node3" class="node">
<title>NM2_main_N3</title>
<ellipse fill="none" stroke="black" cx="289" cy="-704" rx="50.09" ry="18"/>
<text text-anchor="middle" x="289" y="-700.3" font-family="Times,serif" font-size="14.00">input (this)</text>
</g>
<!-- NM2_main_N7 -->
<g id="node4" class="node">
<title>NM2_main_N7</title>
<ellipse fill="none" stroke="black" cx="290" cy="-537" rx="38.19" ry="18"/>
<text text-anchor="middle" x="290" y="-533.3" font-family="Times,serif" font-size="14.00">(String)</text>
</g>
<!-- NM2_main_N6 -->
<g id="node8" class="node">
<title>NM2_main_N6</title>
<ellipse fill="none" stroke="black" cx="162" cy="-450" rx="73.39" ry="18"/>
<text text-anchor="middle" x="162" y="-446.3" font-family="Times,serif" font-size="14.00">ref_array (String)</text>
</g>
<!-- NM2_main_N7&#45;&gt;NM2_main_N6 -->
<g id="edge5" class="edge">
<title>NM2_main_N7&#45;&gt;NM2_main_N6</title>
<path fill="none" stroke="black" d="M268.86,-521.96C248.72,-508.58 218.08,-488.24 194.77,-472.76"/>
<polygon fill="black" stroke="black" points="196.49,-469.7 186.23,-467.09 192.62,-475.54 196.49,-469.7"/>
</g>
<!-- NM2_main_N10 -->
<g id="node5" class="node">
<title>NM2_main_N10</title>
<ellipse fill="none" stroke="black" cx="282" cy="-304" rx="27.9" ry="18"/>
<text text-anchor="middle" x="282" y="-300.3" font-family="Times,serif" font-size="14.00">(out)</text>
</g>
<!-- NM2_main_N9 -->
<g id="node10" class="node">
<title>NM2_main_N9</title>
<ellipse fill="none" stroke="black" cx="176" cy="-217" rx="59.59" ry="18"/>
<text text-anchor="middle" x="176" y="-213.3" font-family="Times,serif" font-size="14.00">ref_field (out)</text>
</g>
<!-- NM2_main_N10&#45;&gt;NM2_main_N9 -->
<g id="edge7" class="edge">
<title>NM2_main_N10&#45;&gt;NM2_main_N9</title>
<path fill="none" stroke="black" d="M264.97,-289.34C248.58,-276.2 223.51,-256.1 204.15,-240.58"/>
<polygon fill="black" stroke="black" points="206.24,-237.76 196.25,-234.24 201.86,-243.22 206.24,-237.76"/>
</g>
<!-- NM2_main_N4&#45;&gt;NM2_main_N6 -->
<g id="edge3" class="edge">
<title>NM2_main_N4&#45;&gt;NM2_main_N6</title>
<path fill="none" stroke="black" d="M166.79,-518.8C165.96,-507.16 164.86,-491.55 163.92,-478.24"/>
<polygon fill="black" stroke="black" points="167.41,-477.9 163.21,-468.18 160.43,-478.4 167.41,-477.9"/>
<text text-anchor="middle" x="179.5" y="-489.8" font-family="Times,serif" font-size="14.00">array</text>
</g>
<!-- NM2_main_N5 -->
<g id="node7" class="node">
<title>NM2_main_N5</title>
<polygon fill="none" stroke="black" points="91,-555 37,-555 37,-519 91,-519 91,-555"/>
<text text-anchor="middle" x="64" y="-533.3" font-family="Courier,monospace" font-size="14.00">0</text>
</g>
<!-- NM2_main_N5&#45;&gt;NM2_main_N6 -->
<g id="edge4" class="edge">
<title>NM2_main_N5&#45;&gt;NM2_main_N6</title>
<path fill="none" stroke="black" d="M83.83,-518.8C98.64,-505.96 119.02,-488.27 135.27,-474.19"/>
<polygon fill="black" stroke="black" points="137.6,-476.79 142.86,-467.6 133.02,-471.51 137.6,-476.79"/>
<text text-anchor="middle" x="134.5" y="-489.8" font-family="Times,serif" font-size="14.00">index</text>
</g>
<!-- NM2_main_N8 -->
<g id="node9" class="node">
<title>NM2_main_N8</title>
<ellipse fill="none" stroke="black" cx="160" cy="-377" rx="76.09" ry="18"/>
<text text-anchor="middle" x="160" y="-373.3" font-family="Times,serif" font-size="14.00">assign_var (name)</text>
</g>
<!-- NM2_main_N6&#45;&gt;NM2_main_N8 -->
<g id="edge6" class="edge">
<title>NM2_main_N6&#45;&gt;NM2_main_N8</title>
<path fill="none" stroke="black" d="M161.52,-431.81C161.29,-423.79 161.02,-414.05 160.76,-405.07"/>
<polygon fill="black" stroke="black" points="164.26,-404.93 160.48,-395.03 157.26,-405.12 164.26,-404.93"/>
</g>
<!-- NM2_main_N12 -->
<g id="node12" class="node">
<title>NM2_main_N12</title>
<ellipse fill="none" stroke="black" cx="172" cy="-304" rx="63.89" ry="18"/>
<text text-anchor="middle" x="172" y="-300.3" font-family="Times,serif" font-size="14.00">ref_var (name)</text>
</g>
<!-- NM2_main_N8&#45;&gt;NM2_main_N12 -->
<g id="edge8" class="edge">
<title>NM2_main_N8&#45;&gt;NM2_main_N12</title>
<path fill="none" stroke="black" d="M162.9,-358.81C164.26,-350.79 165.91,-341.05 167.42,-332.07"/>
<polygon fill="black" stroke="black" points="170.91,-332.47 169.12,-322.03 164,-331.31 170.91,-332.47"/>
</g>
<!-- NM2_main_N14 -->
<g id="node14" class="node">
<title>NM2_main_N14</title>
<ellipse fill="none" stroke="black" cx="111" cy="-130" rx="48.19" ry="18"/>
<text text-anchor="middle" x="111" y="-126.3" font-family="Courier,monospace" font-size="14.00">println</text>
</g>
<!-- NM2_main_N9&#45;&gt;NM2_main_N14 -->
<g id="edge11" class="edge">
<title>NM2_main_N9&#45;&gt;NM2_main_N14</title>
<path fill="none" stroke="black" d="M163.16,-199.21C153.66,-186.79 140.57,-169.67 129.89,-155.7"/>
<polygon fill="black" stroke="black" points="132.45,-153.29 123.59,-147.47 126.89,-157.54 132.45,-153.29"/>
<text text-anchor="middle" x="160.5" y="-169.8" font-family="Times,serif" font-size="14.00">#this</text>
</g>
<!-- NM2_main_N11 -->
<g id="node11" class="node">
<title>NM2_main_N11</title>
<polygon fill="none" stroke="black" points="90,-322 16,-322 16,-286 90,-286 90,-322"/>
<text text-anchor="middle" x="53" y="-300.3" font-family="Courier,monospace" font-size="14.00">Hello, </text>
</g>
<!-- NM2_main_N13 -->
<g id="node13" class="node">
<title>NM2_main_N13</title>
<ellipse fill="none" stroke="black" cx="71" cy="-217" rx="27" ry="18"/>
<text text-anchor="middle" x="71" y="-213.3" font-family="Courier,monospace" font-size="14.00">+</text>
</g>
<!-- NM2_main_N11&#45;&gt;NM2_main_N13 -->
<g id="edge9" class="edge">
<title>NM2_main_N11&#45;&gt;NM2_main_N13</title>
<path fill="none" stroke="black" d="M56.64,-285.8C59.12,-274.09 62.46,-258.34 65.29,-244.97"/>
<polygon fill="black" stroke="black" points="68.78,-245.39 67.42,-234.89 61.93,-243.94 68.78,-245.39"/>
<text text-anchor="middle" x="68.5" y="-256.8" font-family="Times,serif" font-size="14.00">L</text>
</g>
<!-- NM2_main_N12&#45;&gt;NM2_main_N13 -->
<g id="edge10" class="edge">
<title>NM2_main_N12&#45;&gt;NM2_main_N13</title>
<path fill="none" stroke="black" d="M152.53,-286.61C136.17,-272.85 112.73,-253.12 95.17,-238.34"/>
<polygon fill="black" stroke="black" points="96.99,-235.3 87.09,-231.54 92.48,-240.66 96.99,-235.3"/>
<text text-anchor="middle" x="133" y="-256.8" font-family="Times,serif" font-size="14.00">R</text>
</g>
<!-- NM2_main_N13&#45;&gt;NM2_main_N14 -->
<g id="edge12" class="edge">
<title>NM2_main_N13&#45;&gt;NM2_main_N14</title>
<path fill="none" stroke="black" d="M78.71,-199.61C84.39,-187.54 92.23,-170.88 98.77,-157"/>
<polygon fill="black" stroke="black" points="101.95,-158.46 103.04,-147.92 95.61,-155.48 101.95,-158.46"/>
<text text-anchor="middle" x="109.5" y="-169.8" font-family="Times,serif" font-size="14.00">#arg0</text>
</g>
<!-- NM2_main_N15 -->
<g id="node15" class="node">
<title>NM2_main_N15</title>
<ellipse fill="none" stroke="black" cx="111" cy="-57" rx="36.29" ry="18"/>
<text text-anchor="middle" x="111" y="-53.3" font-family="Times,serif" font-size="14.00">receive</text>
</g>
<!-- NM2_main_N14&#45;&gt;NM2_main_N15 -->
<g id="edge13" class="edge">
<title>NM2_main_N14&#45;&gt;NM2_main_N15</title>
<path fill="none" stroke="black" d="M111,-111.81C111,-103.79 111,-94.05 111,-85.07"/>
<polygon fill="black" stroke="black" points="114.5,-85.03 111,-75.03 107.5,-85.03 114.5,-85.03"/>
</g>
</g>
</svg>
