<?xml version="1.0" encoding="UTF-8" standalone="no"?>
<!DOCTYPE svg PUBLIC "-//W3C//DTD SVG 1.1//EN"
 "http://www.w3.org/Graphics/SVG/1.1/DTD/svg11.dtd">
<!-- Generated by graphviz version 2.40.1 (0)
 -->
<!-- Title: LHelloWorld;.main([Ljava/lang/String;)V Pages: 1 -->
<svg width="328pt" height="413pt"
 viewBox="0.00 0.00 328.00 413.00" xmlns="http://www.w3.org/2000/svg" xmlns:xlink="http://www.w3.org/1999/xlink">
<g id="graph0" class="graph" transform="scale(1 1) rotate(0) translate(4 409)">
<title>LHelloWorld;.main([Ljava/lang/String;)V</title>
<polygon fill="#ffffff" stroke="transparent" points="-4,4 -4,-409 324,-409 324,4 -4,4"/>
<text text-anchor="middle" x="160" y="-7.8" font-family="Times,serif" font-size="14.00" fill="#000000">LHelloWorld;.main([Ljava/lang/String;)V</text>
<g id="clust1" class="cluster">
<title>cluster_LHelloWorld;</title>
<polygon fill="none" stroke="#000000" points="8,-31 8,-342 312,-342 312,-31 8,-31"/>
<text text-anchor="middle" x="160" y="-326.8" font-family="Times,serif" font-size="14.00" fill="#000000">LHelloWorld;.:main</text>
</g>
<!-- NG1_main_N3 -->
<g id="node1" class="node">
<title>NG1_main_N3</title>
<ellipse fill="none" stroke="#000000" cx="231" cy="-387" rx="59.5901" ry="18"/>
<text text-anchor="middle" x="231" y="-383.3" font-family="Times,serif" font-size="14.00" fill="#000000">input (out)</text>
</g>
<!-- NG1_main_N5 -->
<g id="node2" class="node">
<title>NG1_main_N5</title>
<ellipse fill="none" stroke="#000000" cx="231" cy="-293" rx="73.387" ry="18"/>
<text text-anchor="middle" x="231" y="-289.3" font-family="Times,serif" font-size="14.00" fill="#000000">ref_field (out)</text>
</g>
<!-- NG1_main_N3&#45;&gt;NG1_main_N5 -->
<g id="edge1" class="edge">
<title>NG1_main_N3&#45;&gt;NG1_main_N5</title>
<path fill="none" stroke="#000000" d="M231,-368.8759C231,-355.3516 231,-336.6192 231,-321.1514"/>
<polygon fill="#000000" stroke="#000000" points="234.5001,-321.0685 231,-311.0685 227.5001,-321.0685 234.5001,-321.0685"/>
</g>
<!-- NG1_main_N7 -->
<g id="node4" class="node">
<title>NG1_main_N7</title>
<ellipse fill="none" stroke="#000000" cx="137" cy="-168" rx="48.1917" ry="18"/>
<text text-anchor="middle" x="137" y="-164.3" font-family="Courier,monospace" font-size="14.00" fill="#000000">println</text>
</g>
<!-- NG1_main_N5&#45;&gt;NG1_main_N7 -->
<g id="edge2" class="edge">
<title>NG1_main_N5&#45;&gt;NG1_main_N7</title>
<path fill="none" stroke="#000000" d="M217.5321,-275.0905C201.4565,-253.7135 174.4606,-217.8146 156.2017,-193.5341"/>
<polygon fill="#000000" stroke="#000000" points="158.9474,-191.362 150.1399,-185.4732 153.3528,-195.5692 158.9474,-191.362"/>
<text text-anchor="middle" x="209" y="-226.8" font-family="Times,serif" font-size="14.00" fill="#000000">#this</text>
</g>
<!-- NG1_main_N6 -->
<g id="node3" class="node">
<title>NG1_main_N6</title>
<polygon fill="none" stroke="#000000" points="140,-311 16,-311 16,-275 140,-275 140,-311"/>
<text text-anchor="middle" x="78" y="-289.3" font-family="Courier,monospace" font-size="14.00" fill="#000000">Hello, World!</text>
</g>
<!-- NG1_main_N6&#45;&gt;NG1_main_N7 -->
<g id="edge3" class="edge">
<title>NG1_main_N6&#45;&gt;NG1_main_N7</title>
<path fill="none" stroke="#000000" d="M86.5791,-274.8239C96.4667,-253.8756 112.8147,-219.2401 124.2055,-195.107"/>
<polygon fill="#000000" stroke="#000000" points="127.4982,-196.3305 128.6016,-185.7933 121.168,-193.3426 127.4982,-196.3305"/>
<text text-anchor="middle" x="134" y="-226.8" font-family="Times,serif" font-size="14.00" fill="#000000">#arg0</text>
</g>
<!-- NG1_main_N8 -->
<g id="node5" class="node">
<title>NG1_main_N8</title>
<ellipse fill="none" stroke="#000000" cx="137" cy="-57" rx="44.393" ry="18"/>
<text text-anchor="middle" x="137" y="-53.3" font-family="Times,serif" font-size="14.00" fill="#000000">receive</text>
</g>
<!-- NG1_main_N7&#45;&gt;NG1_main_N8 -->
<g id="edge4" class="edge">
<title>NG1_main_N7&#45;&gt;NG1_main_N8</title>
<path fill="none" stroke="#000000" d="M137,-149.6706C137,-132.2373 137,-105.7482 137,-85.5489"/>
<polygon fill="#000000" stroke="#000000" points="140.5001,-85.3566 137,-75.3566 133.5001,-85.3567 140.5001,-85.3566"/>
</g>
</g>
</svg>
