<?xml version="1.0" encoding="UTF-8" standalone="no"?>
<!DOCTYPE svg PUBLIC "-//W3C//DTD SVG 1.1//EN"
 "http://www.w3.org/Graphics/SVG/1.1/DTD/svg11.dtd">
<!-- Generated by graphviz version 2.40.1 (0)
 -->
<!-- Title: LHello;.main([Ljava/lang/String;)V Pages: 1 -->
<svg width="410pt" height="979pt"
 viewBox="0.00 0.00 409.79 979.00" xmlns="http://www.w3.org/2000/svg" xmlns:xlink="http://www.w3.org/1999/xlink">
<g id="graph0" class="graph" transform="scale(1 1) rotate(0) translate(4 975)">
<title>LHello;.main([Ljava/lang/String;)V</title>
<polygon fill="#ffffff" stroke="transparent" points="-4,4 -4,-975 405.7947,-975 405.7947,4 -4,4"/>
<text text-anchor="middle" x="200.8973" y="-7.8" font-family="Times,serif" font-size="14.00" fill="#000000">LHello;.main([Ljava/lang/String;)V</text>
<g id="clust1" class="cluster">
<title>cluster_LHello;.:main:25:139</title>
<polygon fill="none" stroke="#000000" points="8,-31 8,-835 274,-835 274,-31 8,-31"/>
<text text-anchor="middle" x="141" y="-819.8" font-family="Times,serif" font-size="14.00" fill="#000000">LHello;.:main:25:139</text>
</g>
<!-- NG1_main_N1 -->
<g id="node1" class="node">
<title>NG1_main_N1</title>
<ellipse fill="none" stroke="#000000" cx="182" cy="-953" rx="66.0889" ry="18"/>
<text text-anchor="middle" x="182" y="-949.3" font-family="Times,serif" font-size="14.00" fill="#000000">input (arg0)</text>
</g>
<!-- NG1_main_N2 -->
<g id="node2" class="node">
<title>NG1_main_N2</title>
<ellipse fill="none" stroke="#000000" cx="182" cy="-880" rx="90.1842" ry="18"/>
<text text-anchor="middle" x="182" y="-876.3" font-family="Times,serif" font-size="14.00" fill="#000000">assign_var (args)</text>
</g>
<!-- NG1_main_N1&#45;&gt;NG1_main_N2 -->
<g id="edge1" class="edge">
<title>NG1_main_N1&#45;&gt;NG1_main_N2</title>
<path fill="none" stroke="#000000" d="M182,-934.9551C182,-926.8828 182,-917.1764 182,-908.1817"/>
<polygon fill="#000000" stroke="#000000" points="185.5001,-908.0903 182,-898.0904 178.5001,-908.0904 185.5001,-908.0903"/>
</g>
<!-- NG1_main_N6 -->
<g id="node4" class="node">
<title>NG1_main_N6</title>
<ellipse fill="none" stroke="#000000" cx="182" cy="-786" rx="73.387" ry="18"/>
<text text-anchor="middle" x="182" y="-782.3" font-family="Times,serif" font-size="14.00" fill="#000000">ref_var (args)</text>
</g>
<!-- NG1_main_N2&#45;&gt;NG1_main_N6 -->
<g id="edge2" class="edge">
<title>NG1_main_N2&#45;&gt;NG1_main_N6</title>
<path fill="none" stroke="#000000" d="M182,-861.8759C182,-848.3516 182,-829.6192 182,-814.1514"/>
<polygon fill="#000000" stroke="#000000" points="185.5001,-814.0685 182,-804.0685 178.5001,-814.0685 185.5001,-814.0685"/>
</g>
<!-- NG1_main_N4 -->
<g id="node3" class="node">
<title>NG1_main_N4</title>
<ellipse fill="none" stroke="#000000" cx="342" cy="-366" rx="59.5901" ry="18"/>
<text text-anchor="middle" x="342" y="-362.3" font-family="Times,serif" font-size="14.00" fill="#000000">input (out)</text>
</g>
<!-- NG1_main_N10 -->
<g id="node8" class="node">
<title>NG1_main_N10</title>
<ellipse fill="none" stroke="#000000" cx="193" cy="-293" rx="73.387" ry="18"/>
<text text-anchor="middle" x="193" y="-289.3" font-family="Times,serif" font-size="14.00" fill="#000000">ref_field (out)</text>
</g>
<!-- NG1_main_N4&#45;&gt;NG1_main_N10 -->
<g id="edge6" class="edge">
<title>NG1_main_N4&#45;&gt;NG1_main_N10</title>
<path fill="none" stroke="#000000" d="M310.4009,-350.5186C288.5308,-339.8037 259.1783,-325.4229 235.2945,-313.7215"/>
<polygon fill="#000000" stroke="#000000" points="236.6227,-310.4747 226.1026,-309.2181 233.5429,-316.7608 236.6227,-310.4747"/>
</g>
<!-- NG1_main_N8 -->
<g id="node6" class="node">
<title>NG1_main_N8</title>
<ellipse fill="none" stroke="#000000" cx="171" cy="-661" rx="53.0913" ry="18"/>
<text text-anchor="middle" x="171" y="-657.3" font-family="Times,serif" font-size="14.00" fill="#000000">ref_array</text>
</g>
<!-- NG1_main_N6&#45;&gt;NG1_main_N8 -->
<g id="edge3" class="edge">
<title>NG1_main_N6&#45;&gt;NG1_main_N8</title>
<path fill="none" stroke="#000000" d="M180.4005,-767.8239C178.5838,-747.1798 175.5974,-713.2431 173.4785,-689.1648"/>
<polygon fill="#000000" stroke="#000000" points="176.9647,-688.8527 172.6014,-679.198 169.9916,-689.4664 176.9647,-688.8527"/>
<text text-anchor="middle" x="196.5" y="-719.8" font-family="Times,serif" font-size="14.00" fill="#000000">array</text>
</g>
<!-- NG1_main_N7 -->
<g id="node5" class="node">
<title>NG1_main_N7</title>
<polygon fill="none" stroke="#000000" points="91,-804 37,-804 37,-768 91,-768 91,-804"/>
<text text-anchor="middle" x="64" y="-782.3" font-family="Courier,monospace" font-size="14.00" fill="#000000">0</text>
</g>
<!-- NG1_main_N7&#45;&gt;NG1_main_N8 -->
<g id="edge4" class="edge">
<title>NG1_main_N7&#45;&gt;NG1_main_N8</title>
<path fill="none" stroke="#000000" d="M79.5587,-767.8239C97.9931,-746.2884 128.8097,-710.2877 149.5119,-686.1029"/>
<polygon fill="#000000" stroke="#000000" points="152.2684,-688.2649 156.1124,-678.392 146.9506,-683.7129 152.2684,-688.2649"/>
<text text-anchor="middle" x="142" y="-719.8" font-family="Times,serif" font-size="14.00" fill="#000000">index</text>
</g>
<!-- NG1_main_N9 -->
<g id="node7" class="node">
<title>NG1_main_N9</title>
<ellipse fill="none" stroke="#000000" cx="171" cy="-550" rx="94.7833" ry="18"/>
<text text-anchor="middle" x="171" y="-546.3" font-family="Times,serif" font-size="14.00" fill="#000000">assign_var (name)</text>
</g>
<!-- NG1_main_N8&#45;&gt;NG1_main_N9 -->
<g id="edge5" class="edge">
<title>NG1_main_N8&#45;&gt;NG1_main_N9</title>
<path fill="none" stroke="#000000" d="M171,-642.6706C171,-625.2373 171,-598.7482 171,-578.5489"/>
<polygon fill="#000000" stroke="#000000" points="174.5001,-578.3566 171,-568.3566 167.5001,-578.3567 174.5001,-578.3566"/>
</g>
<!-- NG1_main_N12 -->
<g id="node10" class="node">
<title>NG1_main_N12</title>
<ellipse fill="none" stroke="#000000" cx="187" cy="-439" rx="78.7863" ry="18"/>
<text text-anchor="middle" x="187" y="-435.3" font-family="Times,serif" font-size="14.00" fill="#000000">ref_var (name)</text>
</g>
<!-- NG1_main_N9&#45;&gt;NG1_main_N12 -->
<g id="edge7" class="edge">
<title>NG1_main_N9&#45;&gt;NG1_main_N12</title>
<path fill="none" stroke="#000000" d="M173.6421,-531.6706C176.1666,-514.1569 180.0085,-487.5039 182.925,-467.2701"/>
<polygon fill="#000000" stroke="#000000" points="186.3914,-467.7537 184.354,-457.3566 179.463,-466.755 186.3914,-467.7537"/>
</g>
<!-- NG1_main_N14 -->
<g id="node12" class="node">
<title>NG1_main_N14</title>
<ellipse fill="none" stroke="#000000" cx="125" cy="-168" rx="48.1917" ry="18"/>
<text text-anchor="middle" x="125" y="-164.3" font-family="Courier,monospace" font-size="14.00" fill="#000000">println</text>
</g>
<!-- NG1_main_N10&#45;&gt;NG1_main_N14 -->
<g id="edge10" class="edge">
<title>NG1_main_N10&#45;&gt;NG1_main_N14</title>
<path fill="none" stroke="#000000" d="M183.2573,-275.0905C171.8453,-254.1127 152.8258,-219.1504 139.6371,-194.9065"/>
<polygon fill="#000000" stroke="#000000" points="142.5779,-192.988 134.7247,-185.8762 136.4289,-196.3331 142.5779,-192.988"/>
<text text-anchor="middle" x="182" y="-226.8" font-family="Times,serif" font-size="14.00" fill="#000000">#this</text>
</g>
<!-- NG1_main_N11 -->
<g id="node9" class="node">
<title>NG1_main_N11</title>
<polygon fill="none" stroke="#000000" points="90,-457 16,-457 16,-421 90,-421 90,-457"/>
<text text-anchor="middle" x="53" y="-435.3" font-family="Courier,monospace" font-size="14.00" fill="#000000">Hello, </text>
</g>
<!-- NG1_main_N13 -->
<g id="node11" class="node">
<title>NG1_main_N13</title>
<ellipse fill="none" stroke="#000000" cx="75" cy="-293" rx="27" ry="18"/>
<text text-anchor="middle" x="75" y="-289.3" font-family="Courier,monospace" font-size="14.00" fill="#000000">+</text>
</g>
<!-- NG1_main_N11&#45;&gt;NG1_main_N13 -->
<g id="edge8" class="edge">
<title>NG1_main_N11&#45;&gt;NG1_main_N13</title>
<path fill="none" stroke="#000000" d="M55.7418,-420.8042C59.517,-395.7506 66.3505,-350.4015 70.7798,-321.007"/>
<polygon fill="#000000" stroke="#000000" points="74.2635,-321.3764 72.2927,-310.9665 67.3417,-320.3333 74.2635,-321.3764"/>
<text text-anchor="middle" x="71" y="-362.3" font-family="Times,serif" font-size="14.00" fill="#000000">L</text>
</g>
<!-- NG1_main_N12&#45;&gt;NG1_main_N13 -->
<g id="edge9" class="edge">
<title>NG1_main_N12&#45;&gt;NG1_main_N13</title>
<path fill="none" stroke="#000000" d="M173.2666,-421.0975C153.2767,-395.0393 116.1082,-346.5875 93.6559,-317.3193"/>
<polygon fill="#000000" stroke="#000000" points="96.3315,-315.0567 87.4678,-309.2527 90.7774,-319.3173 96.3315,-315.0567"/>
<text text-anchor="middle" x="148.5" y="-362.3" font-family="Times,serif" font-size="14.00" fill="#000000">R</text>
</g>
<!-- NG1_main_N13&#45;&gt;NG1_main_N14 -->
<g id="edge11" class="edge">
<title>NG1_main_N13&#45;&gt;NG1_main_N14</title>
<path fill="none" stroke="#000000" d="M82.0577,-275.3557C90.3858,-254.5355 104.3283,-219.6792 114.0596,-195.3511"/>
<polygon fill="#000000" stroke="#000000" points="117.352,-196.544 117.8163,-185.9593 110.8526,-193.9442 117.352,-196.544"/>
<text text-anchor="middle" x="125" y="-226.8" font-family="Times,serif" font-size="14.00" fill="#000000">#arg0</text>
</g>
<!-- NG1_main_N15 -->
<g id="node13" class="node">
<title>NG1_main_N15</title>
<ellipse fill="none" stroke="#000000" cx="125" cy="-57" rx="44.393" ry="18"/>
<text text-anchor="middle" x="125" y="-53.3" font-family="Times,serif" font-size="14.00" fill="#000000">receive</text>
</g>
<!-- NG1_main_N14&#45;&gt;NG1_main_N15 -->
<g id="edge12" class="edge">
<title>NG1_main_N14&#45;&gt;NG1_main_N15</title>
<path fill="none" stroke="#000000" d="M125,-149.6706C125,-132.2373 125,-105.7482 125,-85.5489"/>
<polygon fill="#000000" stroke="#000000" points="128.5001,-85.3566 125,-75.3566 121.5001,-85.3567 128.5001,-85.3566"/>
</g>
</g>
</svg>
